<svg width="19" height="20" viewBox="0 0 19 20" fill="none" xmlns="http://www.w3.org/2000/svg">
<g id="Google logo">
<g clip-path="url(#clip0_956_288)">
<path id="Vector" d="M18.174 10.2105C18.174 9.43162 18.1121 8.86325 17.9782 8.27383H9.27246V11.7893H14.3825C14.2796 12.6629 13.7232 13.9786 12.4869 14.8627L12.4695 14.9804L15.2221 17.1589L15.4128 17.1783C17.1643 15.5258 18.174 13.0944 18.174 10.2105Z" fill="#4285F4"/>
<path id="Vector_2" d="M9.27238 19.4729C11.7759 19.4729 13.8776 18.6308 15.4128 17.1783L12.4868 14.8627C11.7038 15.4205 10.6529 15.81 9.27238 15.81C6.82036 15.81 4.73924 14.1575 3.99738 11.8735L3.88864 11.883L1.02644 14.1459L0.989014 14.2522C2.51379 17.3467 5.64581 19.4729 9.27238 19.4729Z" fill="#34A853"/>
<path id="Vector_3" d="M3.9974 11.8735C3.80165 11.2841 3.68836 10.6525 3.68836 10C3.68836 9.34739 3.80165 8.71589 3.9871 8.12648L3.98191 8.00095L1.08385 5.70163L0.989033 5.74771C0.360597 7.03182 0 8.47383 0 10C0 11.5262 0.360597 12.9681 0.989033 14.2522L3.9974 11.8735Z" fill="#FBBC05"/>
<path id="Vector_4" d="M9.27238 4.18994C11.0135 4.18994 12.188 4.95829 12.8577 5.60039L15.4746 2.99007C13.8674 1.46389 11.7759 0.52713 9.27238 0.52713C5.64581 0.52713 2.51379 2.65324 0.989014 5.74769L3.98708 8.12646C4.73924 5.84245 6.82036 4.18994 9.27238 4.18994Z" fill="#EB4335"/>
</g>
</g>
<defs>
<clipPath id="clip0_956_288">
<rect y="0.5" width="18.1739" height="19" rx="9.08696" fill="white"/>
</clipPath>
</defs>
</svg>
